D:\school\WTK\thesis\model\3dpredictsim\Results\batch_windlass\Pog_s1_tmt_aCst_d05_k1000_WL10_ig24_pas_GRF.mot
nRows=15
nColumns=19

name D:\school\WTK\thesis\model\3dpredictsim\Results\batch_windlass\Pog_s1_tmt_aCst_d05_k1000_WL10_ig24_pas_GRF.mot
datacolumns 19
datarows 15
range 0.5389255194 0.6898246649
endheader
time 	ground_force_vx	ground_force_vy	ground_force_vz	ground_force_px	ground_force_py	ground_force_pz	1_ground_force_vx	1_ground_force_vy	1_ground_force_vz	1_ground_force_px	1_ground_force_py	1_ground_force_pz	ground_torque_x	ground_torque_y	ground_torque_z	1_ground_torque_x	1_ground_torque_y	1_ground_torque_z
        0.5389255194	      108.2387899548	      524.7194548909	        2.0371742818	        0.3520135516	        0.0000000000	        0.0375425443	      -82.8565891214	       58.4731370568	      -20.4613899826	        0.8169180918	        0.0000000000	       -0.0423759543	        0.0000000000	        0.0000000000	        0.0000000000	        0.0000000000	        0.0000000000	        0.0000000000	
        0.5497040298	       93.3639800690	      441.2044745722	        5.9033392752	        0.3555595604	        0.0000000000	        0.0365102139	     -128.8621012123	      115.0309645368	      -43.1562424313	        0.8290485471	        0.0000000000	       -0.0401995410	        0.0000000000	        0.0000000000	        0.0000000000	        0.0000000000	        0.0000000000	        0.0000000000	
        0.5604825402	       72.8660882267	      357.9981746230	       11.6333864399	        0.3604909037	        0.0000000000	        0.0347941074	     -108.6127613411	      226.5791800972	      -66.1281007775	        0.8405081804	        0.0000000000	       -0.0400762557	        0.0000000000	        0.0000000000	        0.0000000000	        0.0000000000	        0.0000000000	        0.0000000000	
        0.5712610506	       44.8980147365	      262.8752193503	        8.1890587928	        0.3689790191	        0.0000000000	        0.0310010139	      -61.9395031802	      449.5261295892	      -10.9347137749	        0.8518812601	        0.0000000000	       -0.0414573806	        0.0000000000	        0.0000000000	        0.0000000000	        0.0000000000	        0.0000000000	        0.0000000000	
        0.5820395610	       21.3062298135	      176.3737410253	        8.6197944633	        0.3827614664	        0.0000000000	        0.0242054376	      -73.1566964752	      645.1287850487	        8.5396414385	        0.8587103038	        0.0000000000	       -0.0428191712	        0.0000000000	        0.0000000000	        0.0000000000	        0.0000000000	        0.0000000000	        0.0000000000	
        0.5928180714	        7.4990396739	      141.0981631612	       11.5461253526	        0.3870950336	        0.0000000000	        0.0218129785	      -96.0560360935	      774.5689821476	       12.7037681293	        0.8654955284	        0.0000000000	       -0.0433978184	        0.0000000000	        0.0000000000	        0.0000000000	        0.0000000000	        0.0000000000	        0.0000000000	
        0.6035965818	        4.9636848897	      107.3163174258	       13.1948328998	        0.3875614665	        0.0000000000	        0.0219968112	     -116.4810837142	      843.4352675065	       13.1987694805	        0.8724231577	        0.0000000000	       -0.0433252118	        0.0000000000	        0.0000000000	        0.0000000000	        0.0000000000	        0.0000000000	        0.0000000000	
        0.6143750922	       -0.9156087811	       68.7133356730	       11.9496612497	        0.3878154148	        0.0000000000	        0.0220623909	     -115.9616218091	      870.5618422775	       13.1059256838	        0.8801509261	        0.0000000000	       -0.0427218954	        0.0000000000	        0.0000000000	        0.0000000000	        0.0000000000	        0.0000000000	        0.0000000000	
        0.6251536025	       -6.8268285531	       25.5870904737	        5.5695205264	        0.3872969414	        0.0000000000	        0.0218165720	     -108.3013346914	      846.0926907011	       11.6077807989	        0.8849030469	        0.0000000000	       -0.0422629823	        0.0000000000	        0.0000000000	        0.0000000000	        0.0000000000	        0.0000000000	        0.0000000000	
        0.6359321129	        0.0878267402	       -0.0903009726	       -0.0074161738	        0.0000000000	        0.0000000000	        0.0000000000	      -94.3610190367	      808.6368270832	       12.1226203321	        0.8883718453	        0.0000000000	       -0.0419191426	        0.0000000000	        0.0000000000	        0.0000000000	        0.0000000000	        0.0000000000	        0.0000000000	
        0.6467106233	        0.0000977386	       -0.0000819280	        0.0000022072	        0.0000000000	        0.0000000000	        0.0000000000	      -80.4857271270	      767.5007217093	       13.5366180235	        0.8915388351	        0.0000000000	       -0.0416745438	        0.0000000000	        0.0000000000	        0.0000000000	        0.0000000000	        0.0000000000	        0.0000000000	
        0.6574891337	        0.0000162802	       -0.0000116542	        0.0000008776	        0.0000000000	        0.0000000000	        0.0000000000	      -67.7885255824	      728.8496497026	       14.5095437845	        0.8946851644	        0.0000000000	       -0.0415393403	        0.0000000000	        0.0000000000	        0.0000000000	        0.0000000000	        0.0000000000	        0.0000000000	
        0.6682676441	        0.0001066804	       -0.0000677511	        0.0000072478	        0.0000000000	        0.0000000000	        0.0000000000	      -56.5206124118	      694.0804682535	       15.0568206633	        0.8979862079	        0.0000000000	       -0.0414896249	        0.0000000000	        0.0000000000	        0.0000000000	        0.0000000000	        0.0000000000	        0.0000000000	
        0.6790461545	        0.0027649424	       -0.0016015561	        0.0002101037	        0.0000000000	        0.0000000000	        0.0000000000	      -46.6087901142	      664.3268552291	       15.7968702559	        0.9018058089	        0.0000000000	       -0.0414938500	        0.0000000000	        0.0000000000	        0.0000000000	        0.0000000000	        0.0000000000	        0.0000000000	
        0.6898246649	       -0.0189980617	        0.0102306262	       -0.0015482559	        0.0000000000	        0.0000000000	        0.0000000000	      -38.4709122887	      640.3713840416	       16.8793352278	        0.9065495576	        0.0000000000	       -0.0415091821	        0.0000000000	        0.0000000000	        0.0000000000	        0.0000000000	        0.0000000000	        0.0000000000	
